<?xml version="1.0" standalone="no"?>
<!DOCTYPE svg PUBLIC "-//W3C//DTD SVG 20010904//EN"
 "http://www.w3.org/TR/2001/REC-SVG-20010904/DTD/svg10.dtd">
<svg version="1.0" xmlns="http://www.w3.org/2000/svg"
 width="1197.000000pt" height="196.000000pt" viewBox="0 0 1197.000000 196.000000"
 preserveAspectRatio="xMidYMid meet">

<g transform="translate(0.000000,196.000000) scale(0.100000,-0.100000)"
fill="#000000" stroke="none">
<path d="M0 980 l0 -980 1790 0 1790 0 0 980 0 980 -1790 0 -1790 0 0 -980z
m1219 618 c100 -245 544 -1355 548 -1371 5 -16 -7 -17 -158 -17 l-164 0 -54
143 c-30 78 -61 154 -68 169 l-14 28 -293 0 -293 0 -60 -167 -61 -168 -162 -3
c-128 -2 -161 0 -157 10 5 14 553 1417 568 1456 8 22 12 22 168 22 l159 0 41
-102z m1762 -646 l297 -742 -166 2 -167 3 -64 168 -64 167 -296 -2 -296 -3
-60 -165 -61 -165 -162 -3 -162 -2 9 22 c27 70 542 1390 556 1426 l17 42 161
-2 160 -3 298 -743z"/>
<path d="M917 1075 c-54 -147 -96 -269 -94 -272 2 -2 92 -2 199 -1 l195 3 -93
250 c-52 138 -98 259 -102 269 -6 14 -33 -48 -105 -249z"/>
<path d="M2417 1073 c-53 -147 -95 -268 -93 -270 2 -2 91 -2 198 -1 l196 3
-98 263 c-54 145 -99 265 -102 267 -2 2 -47 -116 -101 -262z"/>
<path d="M10921 1715 c-196 -44 -321 -166 -352 -343 -28 -158 61 -326 217
-409 64 -34 188 -74 380 -124 67 -17 144 -44 171 -59 80 -46 103 -121 63 -199
-44 -87 -136 -131 -271 -131 -145 0 -237 52 -290 164 -16 34 -29 71 -29 83 0
12 -5 25 -10 28 -6 3 -73 1 -150 -6 -160 -14 -150 -5 -121 -117 29 -109 67
-180 135 -248 112 -112 245 -156 466 -155 201 0 340 40 439 127 118 103 174
280 137 437 -19 80 -36 117 -84 176 -72 88 -178 138 -455 210 -87 23 -181 52
-210 65 -132 58 -145 176 -27 236 81 41 253 45 326 7 58 -31 114 -112 114
-167 0 -21 2 -21 153 -14 83 4 153 7 153 8 1 0 -2 27 -7 58 -15 95 -46 163
-102 224 -64 70 -106 97 -204 131 -68 23 -97 27 -228 29 -105 3 -169 -1 -214
-11z"/>
<path d="M5150 965 l0 -745 565 0 565 0 0 125 0 125 -415 0 -415 0 2 203 3
202 373 3 372 2 0 125 0 125 -375 0 -375 0 0 165 0 165 405 0 405 0 0 125 0
125 -555 0 -555 0 0 -745z"/>
<path d="M6390 1703 c1 -5 119 -339 264 -743 l263 -735 161 -3 c145 -2 160 -1
167 15 21 56 525 1462 525 1467 0 3 -71 6 -158 6 l-157 0 -174 -522 c-96 -288
-178 -534 -183 -548 -8 -21 -36 50 -180 470 -93 272 -178 518 -187 545 l-18
50 -161 3 c-89 1 -162 -1 -162 -5z"/>
<path d="M7930 965 l0 -745 565 0 565 0 0 125 0 125 -415 0 -415 0 0 205 0
205 370 0 370 0 0 125 0 125 -370 0 -370 0 0 165 0 165 400 0 400 0 0 125 0
125 -550 0 -550 0 0 -745z"/>
<path d="M3890 960 l0 -740 525 0 525 0 0 125 0 125 -375 0 -375 0 0 615 0
615 -150 0 -150 0 0 -740z"/>
<path d="M9320 960 l0 -740 525 0 525 0 0 125 0 125 -375 0 -375 0 0 615 0
615 -150 0 -150 0 0 -740z"/>
</g>
</svg>
